custom-analysis
version=1
nRows=4
nColumns=98
inDegrees=no

This file contains tibia displacement and acting force.

Units are S.I. units (seconds, meters, Newtons, ...)
Angles are in degrees.

endheader
time	APT	SIT	knee_angle	aACL_R_force	pACL_R_force	aPCL_R_force	pPCL_R_force	aMCL_R_force	mMCL_R_force	pMCL_R_force	aLCL_R_force	mLCL_R_force	pLCL_R_force	aPCL_L_force	pPCL_L_force	aMCL_L_force	aLCL_L_force	aACL_R_length	pACL_R_length	aPCL_R_length	pPCL_R_length	aMCL_R_length	mMCL_R_length	pMCL_R_length	aLCL_R_length	mLCL_R_length	pLCL_R_length	aPCL_L_length	pPCL_L_length	aMCL_L_length	aLCL_L_length	aACL_R_strain	pACL_R_strain	aPCL_R_strain	pPCL_R_strain	aMCL_R_strain	mMCL_R_strain	pMCL_R_strain	aLCL_R_strain	mLCL_R_strain	pLCL_R_strain	aPCL_L_strain	pPCL_L_strain	aMCL_L_strain	aLCL_L_strain	femur_lat_meniscii_r.femur_lat_r.force.X	femur_lat_meniscii_r.femur_lat_r.force.Y	femur_lat_meniscii_r.femur_lat_r.force.Z	femur_lat_meniscii_r.femur_lat_r.torque.X	femur_lat_meniscii_r.femur_lat_r.torque.Y	femur_lat_meniscii_r.femur_lat_r.torque.Z	femur_lat_meniscii_r.meniscus_lat_r.force.X	femur_lat_meniscii_r.meniscus_lat_r.force.Y	femur_lat_meniscii_r.meniscus_lat_r.force.Z	femur_lat_meniscii_r.meniscus_lat_r.torque.X	femur_lat_meniscii_r.meniscus_lat_r.torque.Y	femur_lat_meniscii_r.meniscus_lat_r.torque.Z	femur_med_meniscii_r.femur_med_r.force.X	femur_med_meniscii_r.femur_med_r.force.Y	femur_med_meniscii_r.femur_med_r.force.Z	femur_med_meniscii_r.femur_med_r.torque.X	femur_med_meniscii_r.femur_med_r.torque.Y	femur_med_meniscii_r.femur_med_r.torque.Z	femur_med_meniscii_r.meniscus_med_r.force.X	femur_med_meniscii_r.meniscus_med_r.force.Y	femur_med_meniscii_r.meniscus_med_r.force.Z	femur_med_meniscii_r.meniscus_med_r.torque.X	femur_med_meniscii_r.meniscus_med_r.torque.Y	femur_med_meniscii_r.meniscus_med_r.torque.Z	femur_med_tibia_r.tibia_upper_r.force.X	femur_med_tibia_r.tibia_upper_r.force.Y	femur_med_tibia_r.tibia_upper_r.force.Z	femur_med_tibia_r.tibia_upper_r.torque.X	femur_med_tibia_r.tibia_upper_r.torque.Y	femur_med_tibia_r.tibia_upper_r.torque.Z	femur_med_tibia_r.femur_med_r.force.X	femur_med_tibia_r.femur_med_r.force.Y	femur_med_tibia_r.femur_med_r.force.Z	femur_med_tibia_r.femur_med_r.torque.X	femur_med_tibia_r.femur_med_r.torque.Y	femur_med_tibia_r.femur_med_r.torque.Z	femur_lat_tibia_r.tibia_upper_r.force.X	femur_lat_tibia_r.tibia_upper_r.force.Y	femur_lat_tibia_r.tibia_upper_r.force.Z	femur_lat_tibia_r.tibia_upper_r.torque.X	femur_lat_tibia_r.tibia_upper_r.torque.Y	femur_lat_tibia_r.tibia_upper_r.torque.Z	femur_lat_tibia_r.femur_lat_r.force.X	femur_lat_tibia_r.femur_lat_r.force.Y	femur_lat_tibia_r.femur_lat_r.force.Z	femur_lat_tibia_r.femur_lat_r.torque.X	femur_lat_tibia_r.femur_lat_r.torque.Y	femur_lat_tibia_r.femur_lat_r.torque.Z	femur_lat_meniscii_force_r	femur_med_meniscii_force_r	femur_lat_tibia_force_r	femur_med_tibia_force_r
      0.10897324	      0.00834312	      0.00764640	     28.57501962	      8.62604561	    -12.26260939	      0.00000000	     59.18792242	      0.00000000	      0.00000000	    -37.96572914	      0.00000000	      0.00000000	      0.00000000	      0.00000000	      0.00000000	      0.00000001	      0.00000000	      0.03246320	      0.02539885	      0.03104979	      0.03018881	      0.05727985	      0.05952280	      0.05880258	      0.05342572	      0.05033778	      0.04676098	      0.01525851	      0.01651186	      0.06550154	      0.04489616	      0.04701437	      0.01357412	     -0.00146349	      0.01007142	     -0.04576524	     -0.00452717	      0.00126990	     -0.04558070	     -0.10619621	     -0.10663800	      0.00000079	     -0.32847694	      0.00000060	     -0.00000086	     51.15255539	    270.31738583	     42.43716519	    -24.00302405	      1.32201508	     19.97948178	    -51.15255539	   -270.31738583	    -42.43716519	      8.35531340	     -1.86052635	      2.31204835	    -29.08223079	     60.49163154	      7.66779506	     -1.70964848	      0.68895381	    -11.90072584	     29.08223079	    -60.49163154	     -7.66779506	     -1.09287377	     -0.70467283	      1.39539423	    -95.89306996	   -503.64222288	    113.06095407	    -11.89786002	      2.39636928	      0.61095271	     95.89306996	    503.64222288	   -113.06095407	     56.19159897	     -1.45589958	     41.14637103	    -37.10252964	   -137.24916235	    -34.59569405	      4.67330397	     -1.31861692	      0.21722901	     37.10252964	    137.24916235	     34.59569405	    -17.60659298	      0.88939899	     15.35602523	    278.36843570	     67.55596729	    146.32427111	    525.00833219
      0.10993630	      0.00841619	      0.00777984	     29.01556791	      7.86325112	    -12.75530109	     26.78709357	     60.83322217	      0.00000000	      0.00000000	    -38.91236792	      0.00000000	      0.00000000	      0.00000000	      0.00000000	      0.00000000	      0.00000001	      0.00000000	      0.03244316	      0.02536597	      0.03112188	      0.03023707	      0.05731586	      0.05951649	      0.05875195	      0.05341764	      0.05030209	      0.04669820	      0.01525851	      0.01651186	      0.06550154	      0.04489616	      0.04636787	      0.01226207	      0.00085492	      0.01168598	     -0.04516526	     -0.00463284	      0.00040776	     -0.04572507	     -0.10682997	     -0.10783743	      0.00000079	     -0.32847694	      0.00000060	     -0.00000086	     53.02288178	    272.38838772	     40.01380517	    -23.02975628	      1.36677442	     20.72561754	    -53.02288178	   -272.38838772	    -40.01380517	      8.30213552	     -1.88877083	      2.34358696	    -27.87766689	     61.26375275	      8.50249242	     -2.03295746	      0.65698162	    -11.40213354	     27.87766689	    -61.26375275	     -8.50249242	     -1.08942607	     -0.68608275	      1.37425945	   -101.58547417	   -506.32635873	    114.02168433	    -11.98092404	      2.51704313	      0.52967079	    101.58547417	    506.32635873	   -114.02168433	     56.62877417	     -1.55771452	     43.50849982	    -35.48675335	   -129.83998278	    -32.73149929	      4.40867076	     -1.26346519	      0.23065653	     35.48675335	    129.83998278	     32.73149929	    -16.65027158	      0.85295277	     14.66984009	    280.37111899	     67.84323172	    138.52466147	    528.85436048
      0.11096270	      0.00849878	      0.00792837	     29.48840893	      6.95066805	    -13.39233875	     24.81829749	     57.64032067	      0.00000000	      0.00000000	      0.00000000	      0.00000000	      0.00000000	      0.00000000	      0.00000000	      0.00000000	      0.00000001	      0.00000000	      0.03242000	      0.02532935	      0.03119310	      0.03028216	      0.05734997	      0.05950488	      0.05869314	      0.05340412	      0.05025879	      0.04662583	      0.01525851	      0.01651186	      0.06550154	      0.04489616	      0.04562106	      0.01080047	      0.00314504	      0.01319471	     -0.04459711	     -0.00482692	     -0.00059359	     -0.04596649	     -0.10759870	     -0.10921994	      0.00000079	     -0.32847694	      0.00000060	     -0.00000086	     59.50690585	    286.54802569	     37.56041246	    -22.33472146	      1.51398861	     23.34731120	    -59.50690585	   -286.54802569	    -37.56041246	      8.56370486	     -2.02848677	      2.39519155	    -27.04097930	     62.83784628	      9.09530920	     -2.23153647	      0.63319611	    -11.05704094	     27.04097930	    -62.83784628	     -9.09530920	     -1.11658209	     -0.67269010	      1.37571117	   -114.70433152	   -531.32537419	    119.52556963	    -12.57745131	      2.79294528	      0.37118135	    114.70433152	    531.32537419	   -119.52556963	     59.36254229	     -1.77990867	     49.03000252	    -36.69965564	   -128.73346980	    -31.99580012	      4.34336372	     -1.28938498	      0.20808046	     36.69965564	    128.73346980	     31.99580012	    -16.31101321	      0.87983233	     15.16680462	    295.06207390	     69.01111603	    137.63321618	    556.55197307
      0.11198909	      0.00858941	      0.00807930	     29.96522357	      8.01424200	    -12.14319890	     25.85421718	     60.87163808	      0.00000000	      0.00000000	      0.00000000	      0.00000000	      0.00000000	      0.00000000	      0.00000000	      0.00000000	      0.00000001	      0.00000000	      0.03239925	      0.02529492	      0.03126096	      0.03032316	      0.05738395	      0.05949241	      0.05863353	      0.05338996	      0.05021458	      0.04655232	      0.01525851	      0.01651186	      0.06550154	      0.04489616	      0.04495168	      0.00942653	      0.00532748	      0.01456657	     -0.04403096	     -0.00503553	     -0.00160855	     -0.04621947	     -0.10838375	     -0.11062435	      0.00000079	     -0.32847694	      0.00000060	     -0.00000086	     59.49417515	    278.24452081	     37.79712588	    -22.23513637	      1.50115590	     23.34774704	    -59.49417515	   -278.24452081	    -37.79712588	      8.34641144	     -2.02276239	      2.35347648	    -24.81659189	     60.95242675	     10.05365869	     -2.67905011	      0.57783724	    -10.14275910	     24.81659189	    -60.95242675	    -10.05365869	     -1.04156076	     -0.63457187	      1.30271683	   -127.09048528	   -550.96300648	    124.38187874	    -13.07297017	      3.06053307	      0.22439879	    127.09048528	    550.96300648	   -124.38187874	     61.73700910	     -1.99554435	     54.21685726	    -37.07044737	   -126.84771777	    -31.76942475	      4.27961051	     -1.30286274	      0.20867182	     37.07044737	    126.84771777	     31.76942475	    -16.16938495	      0.89054191	     15.31132003	    287.03343527	     66.57430145	    135.91857091	    578.94997859
